<?xml version="1.0" encoding="UTF-8" standalone="no"?>
<!-- Created with Inkscape (http://www.inkscape.org/) -->

<svg
   version="1.1"
   id="svg1"
   width="1024"
   height="1024"
   viewBox="0 0 1024 1024"
   xmlns="http://www.w3.org/2000/svg"
   xmlns:svg="http://www.w3.org/2000/svg">
  <defs
     id="defs1" />
  <g
     id="g1">
    <path
       style="fill:#808080;stroke:none"
       d="m 437,173 c 4.173,17.5274 1,38.99402 1,57 -29.72327,0.61346 -62.21106,9.67578 -88,24.42749 -12.17993,6.9671 -24.2951,20.04303 -37,25.10724 -4.48285,1.78686 -8.06107,-3.80267 -11,-6.34644 -6.64053,-5.74768 -15.60968,-8.21667 -22.67053,-1.65588 -8.25946,7.67456 -4.20511,17.59717 2.71066,24.37811 2.68811,2.63568 8.23987,5.60095 6.78781,10.09027 -1.92416,5.94892 -8.28021,11.83796 -11.79938,16.99921 -6.32089,9.27032 -11.71725,19.63757 -16.01696,30 -20.00695,48.21735 -20.10552,104.36041 -1.58722,153 10.71957,28.15564 28.94681,52.28735 50.57562,72.96063 11.97968,11.45038 27.9733,20.78461 38,1.03937 -62.96414,-39.21045 -90.61221,-117.08911 -76.19907,-188 3.90668,-19.22028 11.67292,-38.67682 22.55399,-55 2.29715,-3.44604 8.07672,-14.94446 12.73535,-14.94446 3.67246,0 7.57089,5.60596 9.90973,7.94446 7.86389,7.86292 15.87155,15.45142 24,23.02472 24.89755,23.1972 50.93115,44.85681 75,68.97528 8.10941,8.1261 8.6991,20.54541 18.01465,27.36188 C 453.02402,463.27161 479.52573,444.42255 472.21451,422 467.98236,409.02057 458.06158,409.22028 448,403.98767 441.99969,400.86719 436.79361,394.68311 432,390.01465 419.63248,377.96991 405.32629,368.07202 393,356 c 14.86179,-6.9386 28.21973,-14.67371 45,-16 0,8.85773 -3.30478,25.73975 0.60339,33.68213 1.81656,3.69171 16.92829,3.79596 19.36884,0.71448 C 459.91174,371.94775 459,366.9104 459,364 v -25 c 17.01117,3.20514 32.99146,8.28888 47,18.89972 34.44592,26.09125 45.71222,73.07703 28.13501,112.10028 -7.43323,16.5025 -20.89966,30.42865 -36.13501,39.93518 -6.66785,4.16058 -15.92368,6.46655 -21.72147,11.70215 -4.52331,4.08472 -4.28234,14.00867 1.8295,16.62036 7.75864,3.31543 19.10218,-2.62207 25.89197,-6.01697 C 525.83167,521.32495 544.86725,501.48901 554.57178,479 584.17255,410.40411 539.90845,318.05371 459,318 v -66 c 11.80344,2.81006 24.13217,2.75317 36,5.88428 29.87012,7.88061 57.57928,24.11584 79.96063,45.28546 75.8443,71.73822 69.48902,192.56262 -3.96063,262.79089 -18.83765,18.01142 -45.67566,34.12329 -71,40.88428 -19.09857,5.09882 -39.0722,5.258 -58,10.15509 9.87186,19.04767 32.56516,17.08691 50,13.60034 C 531.48138,622.70496 568.77295,601.95618 595.83026,572 672.77527,486.81116 669.0368,357.60443 583,280.17053 566.24695,265.09265 546.82782,254.13031 526,245.80017 504.67792,237.27234 482.10373,231 459,231 v -59 c 24.09149,5.73553 48.8876,6.37933 73,13.7207 47.1814,14.36499 90.45142,45.79181 120.78931,84.2793 22.93365,29.09424 41.7279,62.76971 50.32641,99 C 734.60999,501.70227 654.20886,643.48145 522,681 v 2 c 8.62781,5.70142 20.65393,20.83276 31,22.16125 4.46918,0.57386 9.97339,-2.73693 14,-4.36187 12.59943,-5.08454 24.37891,-11.3899 36,-18.40045 C 652.5072,652.53302 694.33472,607.27075 717.57562,554 772.47626,428.16174 738.95544,284.82922 630,199.21069 495.25604,93.327209 290.48804,131.08466 199.31944,275 c -16.02377,25.29449 -28.42242,52.9256 -35.6929,82 -6.72288,26.88458 -11.43956,56.21735 -9.53703,84 4.30995,62.93848 22.62095,120.8894 62.12114,171 9.38199,11.90216 19.65805,22.84979 30.78935,33.08569 3.65372,3.35974 8.59074,10.02893 14,6.55323 6.10583,-3.92334 11.40759,-9.76136 16.99536,-14.39429 1.79959,-1.49213 5.49262,-3.32776 4.65897,-6.20911 C 281.27203,626.25781 272.48642,621.4411 269,617.99615 258.43399,607.55585 248.33418,596.87634 239.37424,585 210.91798,547.28149 189.57478,497.98993 189.00386,450 188.70154,424.5874 189.429,398.86908 195.23534,374 213.22977,296.92816 267.04053,229.35046 339,196.30865 c 20.11044,-9.23413 41.14154,-15.97485 63,-19.5548 11.23407,-1.83991 24.25974,-0.57911 35,-3.75385 m 1,79 v 66 c -14.17886,0.6087 -28.20865,5.43188 -41,11.30865 -5.69598,2.61695 -12.77377,9.18415 -19,9.76386 -5.50443,0.51251 -10.40073,-6.64746 -14,-9.90277 C 352.28592,318.57501 337.21552,307.81256 328,295 360.40204,270.98474 396.884,252.84863 438,252 M 321,412.5293 c -20.24826,4.64691 -12.47363,32.54315 7,28.07641 19.23553,-4.41217 11.89639,-32.41308 -7,-28.07641 M 808,543 v 52 c 0,6.99646 1.55969,15.94299 -2.65277,21.99615 C 797.41937,628.38818 777.11389,631.70508 765,637.30945 745.99847,646.10028 729.84814,660.87744 718.02551,678 689.72278,718.99048 700,779.78644 700,827 v 35 c 0,5.2384 -1.13379,12.16132 1.31787,16.98071 3.99884,7.86078 33.05792,7.40357 40.62732,4.27698 C 748.65149,880.48767 747,870.78674 747,865 c 0,-17.2301 -2.1424,-35.66968 4.45294,-52 18.74335,-46.40942 61.96198,-47 104.54706,-47 -1.45123,7.01215 -8.51862,20.15491 -4.81714,26.89124 3.96045,7.20758 11.29559,2.10156 15.81714,-1.26551 13.58197,-10.11401 27.40613,-19.8977 41,-29.99609 5.33838,-3.9657 21.99573,-11.84772 21.45374,-19.62659 -0.27466,-3.9422 -4.62153,-6.36365 -7.45374,-8.42663 -7.7373,-5.63599 -15.34216,-11.4596 -23,-17.20301 -10.98572,-8.23925 -21.81152,-16.76721 -33,-24.72839 -4.33521,-3.08466 -10.55176,-5.61182 -13.82019,0.41357 -3.75916,6.93012 2.22491,19.46216 2.82019,26.94141 -7.71686,-2.28101 -16.98242,-1 -25,-1 -31.48248,0 -57.15002,7.77722 -84,24 0.0189,-28.46423 15.00482,-52.7804 41,-64.69135 C 804.47357,669.30231 825.67889,665.92676 838.81555,651 863.87018,622.53125 856,577.88123 856,543 c 7.49689,0.59253 21.11285,6.42938 27.94519,2.81714 6.0094,-3.17713 4.23962,-9.27936 1.13043,-13.81714 -8.16583,-11.91772 -17.19336,-23.28705 -25.65124,-35 -5.8017,-8.03455 -11.65033,-16.02985 -17.5401,-24 -2.28052,-3.08606 -4.56403,-7.54785 -8.89893,-7.74304 -9.68249,-0.43604 -20.32397,20.82928 -25.27545,27.74304 -8.68103,12.12128 -17.90479,23.8576 -26.55402,36 -2.88397,4.04871 -6.65326,11.06299 -1.72223,15.25769 C 785.38702,549.32208 800.89252,543.56091 808,543 M 373,492.65277 c -20.88589,6.54883 -10.18359,36.02289 10,29.69446 20.74713,-6.50519 10.5668,-36.14325 -10,-29.69446 M 246,753 v 90 c 0,10.01154 -3.13324,26.58142 3.42978,34.95679 C 258.78775,889.89893 290.21167,884 304,884 h 142 c 12.4725,0 41.32663,5.32678 50.44214,-4.47919 C 503.39395,872.04242 500,854.49017 500,845 v -92 c 11.8963,0 37.96997,5.44702 38.78241,-12 C 539.29309,730.03333 517.6499,718.71991 510,712.60034 c -31.00769,-24.80493 -61.23077,-50.63659 -93,-74.47375 -10.45285,-7.84302 -20.58194,-16.10901 -31,-23.99695 -3.84088,-2.90808 -8.79156,-8.10944 -14,-7.79627 -4.87518,0.29309 -9.26721,4.78901 -13,7.51538 -10.09396,7.37256 -20.13242,14.8996 -30,22.57563 -31.93304,24.84082 -62.90295,51.10895 -94,76.98919 -8.99634,7.48713 -29.45807,17.62769 -25.42746,31.5857 C 213.0621,757.08362 236.39925,753 246,753 m 157,5.28552 c 3.94583,-0.46557 10.50574,-1.3988 13.39661,2.03235 C 419.02722,763.44019 418,769.21967 418,773 v 31 c 0.009,5.9292 3.0538,19.23395 -5.01929,20.77161 -6.26657,1.1936 -24.46261,3.81134 -29.54706,-0.51392 C 379.93823,821.28424 381,815.06525 381,811 v -36 c 0,-3.99414 -1.33032,-11.25781 1.74228,-14.39661 3.54556,-3.62194 15.36157,-1.74023 20.25772,-2.31787 m -68.85187,1.31787 C 337.72827,758.04028 343.17084,759 347,759 c 4.99429,0 14.61584,-1.82251 18.6821,1.60339 C 371.75711,765.7218 368,788.47675 368,796 c 0,6.49829 3.2496,25.34222 -4.1088,28.39661 C 360.48019,825.8125 355.62067,825 352,825 c -4.98163,0 -14.28949,1.76459 -18.56635,-1.17902 C 330.41931,821.74634 331.00531,817.17194 331,814 v -26 c 0,-5.8233 -3.09299,-25.67163 3.14813,-28.39661 z"
       id="path1" />
  </g>
</svg>
