<?xml version="1.0" encoding="UTF-8" standalone="no"?>
<!-- Created with Inkscape (http://www.inkscape.org/) -->

<svg
   version="1.1"
   id="svg1"
   width="1024"
   height="1024"
   viewBox="0 0 1024 1024"
   xmlns="http://www.w3.org/2000/svg"
   xmlns:svg="http://www.w3.org/2000/svg">
  <defs
     id="defs1" />
  <g
     id="g1">
    <path
       style="fill:#000000"
       d="M 484.5,854.9797 C 371.50621,845.87929 270.02483,787.0274 209.5008,695.5 155.88498,614.41951 137.09281,516.9723 156.60607,421.21316 166.37775,373.25978 188.78978,323.7111 219.2144,282.79828 279.74271,201.40416 372.6917,149.77445 476.5,139.88567 c 16.70573,-1.59139 56.53948,-1.58061 72,0.0195 126.42759,13.08466 234.40278,86.18281 289.41944,195.93414 25.34815,50.56638 37.04722,100.64353 37.06644,158.66071 0.0142,42.79469 -5.27718,76.13703 -17.83605,112.39006 -4.97692,14.3666 -5.98351,16.06578 -9.53453,16.09463 -2.35834,0.0192 -20.04217,-17.18681 -21.64758,-21.06261 -1.56193,-3.77085 -1.02119,-7.45674 3.80293,-25.92208 4.22557,-16.17426 7.43194,-34.26099 9.1929,-51.85595 1.32338,-13.22285 1.33416,-45.39878 0.02,-59.64405 -5.90307,-63.98776 -31.02716,-124.25626 -73.01049,-175.14001 -9.85762,-11.94744 -32.27802,-34.05478 -44.48106,-43.85999 -43.4297,-34.89599 -95.85088,-58.30267 -152.23135,-67.97309 -9.95268,-1.70709 -34.69503,-4.49873 -40.02724,-4.5162 L 525.96679,173 l 0.26661,26.25 0.2666,26.25 6,0.26986 c 32.98303,1.48349 72.33747,12.1033 104.37207,28.16483 79.92389,40.07228 133.90721,114.61313 146.70008,202.56531 1.8865,12.96989 2.91714,41.28661 1.96302,53.93405 -0.68405,9.06762 -0.99502,10.17964 -3.56537,12.75 -2.56109,2.56109 -3.46095,2.81595 -9.94254,2.81595 -7.22542,0 -12.89343,-1.84116 -13.16266,-4.27568 -0.0745,-0.67338 -0.21453,-12.02432 -0.31125,-25.22432 -0.19061,-26.01216 -1.34352,-36.22711 -6.5462,-58 C 739.77742,387.31923 709.58214,339.70893 668.5,306.83037 641.08595,284.89056 604.08905,267.00835 570.81723,259.61605 557.25841,256.60357 539.00824,254 531.45051,254 h -5.48072 l 0.26511,29.25 0.2651,29.25 7.5,0.72855 c 35.83063,3.48058 74.61593,20.75836 101.73528,45.32026 27.18009,24.61691 47.72597,59.66719 55.28922,94.32073 2.334,10.69401 3.48181,21.97703 2.5951,25.50995 -0.97436,3.88218 -5.34002,5.62051 -14.11539,5.62051 -6.73062,0 -7.8745,-0.27938 -10.04966,-2.45455 C 667.93577,480.02668 667,477.94338 667,476.08091 c 0,-5.49747 -3.80578,-22.74719 -7.36621,-33.38738 -7.44532,-22.25001 -18.3497,-39.55162 -36.06929,-57.22991 C 602.24284,364.19165 579.75963,351.47494 550.5,344.13765 544.28988,342.58037 529.2776,340 526.42764,340 526.19244,340 526,355.525 526,374.5 c 0,41.63335 1.12129,38.5 -13.77749,38.5 -7.23093,0 -10.35635,-0.40545 -12,-1.5567 L 498,409.88659 v -35.00457 -35.00457 l -4.75,0.65494 c -13.69421,1.88817 -34.92639,7.55421 -44.29414,11.82038 -1.23505,0.56245 -1.78327,-0.45451 -2.73875,-5.08049 -1.09977,-5.32455 -7.06219,-16.27855 -9.31083,-17.10561 -2.37244,-0.8726 -0.0854,-2.33595 9.52043,-6.09165 12.32748,-4.8198 31.87023,-9.72107 43.07329,-10.80267 l 8,-0.77235 0.2651,-29.25 0.26511,-29.25 -4.76511,0.005 c -7.38402,0.008 -30.47908,3.66027 -43.7651,6.9203 -85.70484,21.02965 -153.49996,86.85852 -175.58518,170.4927 -3.43295,13.00019 -6.43758,29.73119 -7.42251,41.33158 l -0.70047,8.25 h 32.03212 32.03213 l 0.67467,-5.75 c 1.33149,-11.3478 4.65158,-26.69399 8.03264,-37.12857 3.36055,-10.3713 15.51014,-36.17955 19.33905,-41.08015 l 1.92102,-2.45872 4.64369,4.28041 c 4.65968,4.29514 13.51121,9.109 16.78284,9.12726 0.9625,0.005 1.75,0.28606 1.75,0.62375 0,0.33769 -2.00032,3.82519 -4.44516,7.75 -10.37385,16.65361 -16.99964,35.8268 -21.04073,60.88602 L 356.90937,481 H 391.2997 C 432.71311,481 429.5,479.80642 429.5,495.19036 429.5,510.03263 432.38803,509 390.8774,509 h -33.90104 l 0.5761,4.25 c 1.36722,10.08642 4.83333,24.66479 8.08595,34.00932 15.57916,44.75778 51.89126,80.11727 98.36159,95.78116 10.05316,3.38866 15,7.069 15,11.15969 0,1.19274 -0.73793,4.7986 -1.63985,8.01301 C 475.56329,668.61715 471.5651,673 467.52005,673 458.93164,673 422.62209,656.33478 407.03406,645.23837 395.78582,637.23125 378.27722,620.64508 369.30814,609.5 348.6216,583.79468 335.0473,551.73433 330.88473,518.75 L 329.6543,509 h -31.95628 -31.95627 l 0.6683,8.25 c 5.44456,67.21151 41.01045,130.84114 96.45467,172.56351 40.42487,30.42016 87.36682,47.29146 139.2397,50.04385 18.82932,0.99908 20.89558,2.55995 20.89558,15.78466 0,5.93384 -0.27226,6.78409 -3.06744,9.57926 l -3.06743,3.06744 -16.68257,-0.58418 C 433.15649,765.35749 365.78558,735.74377 317.55212,687.42708 279.9816,649.79172 254.36884,602.66148 243.66184,551.46098 241.42028,540.74189 240.45349,533.92517 238.45528,514.75 L 237.85609,509 H 210.92804 184 l 0.01,5.25 c 0.0165,9.00184 2.88876,31.53746 5.9595,46.75799 5.64712,27.99068 12.9785,49.028 27.03016,77.56273 16.64191,33.79475 35.75068,60.3366 62.94463,87.42928 51.81901,51.62605 116.02457,82.68153 191.55608,92.65346 16.18285,2.13651 61.10933,2.43059 75.5,0.4942 15.88224,-2.13709 26.89919,-4.1124 40.0366,-7.17846 10.59567,-2.47285 13.15022,-2.75953 16.5,-1.85166 7.98248,2.16342 11.4634,7.5829 11.4634,17.84749 0,6.5885 -0.21891,7.29908 -3.25,10.54928 -2.81622,3.0198 -4.78493,3.88537 -14.75,6.48499 -14.84027,3.87144 -28.85338,6.57488 -44.2054,8.52821 -14.72679,1.87378 -52.96459,2.68685 -68.2946,1.45219 z M 238.38374,476.75 c 0.27845,-2.3375 1.00809,-8.975 1.62141,-14.75 4.86312,-45.79084 23.60686,-92.06989 52.82779,-130.43394 9.85206,-12.93473 31.86074,-35.53677 44.66706,-45.87128 42.26744,-34.1092 96.05711,-55.36685 150.5,-59.47749 l 9.5,-0.71729 0.26684,-26.36968 0.26683,-26.36968 -8.76683,0.69503 C 438.36247,177.49133 387.40299,192.585 347.26492,215.51519 262.66066,263.84814 206.47435,341.96655 189.04184,435.5 c -2.14589,11.51371 -5.01572,35.32335 -5.03221,41.75 L 184,481 h 26.93873 26.93872 z M 652.3083,843.02313 c -4.89578,-2.04514 -5.11052,-3.44918 -5.58598,-36.52313 -0.50386,-35.05048 -1.4798,-42.8973 -7.60017,-61.10726 -10.47573,-31.1685 -30.48656,-49.94006 -60.70874,-56.94905 -3.65669,-0.84805 -6.81941,-1.37102 -7.02827,-1.16217 -0.20885,0.20886 -1.7286,7.09345 -3.37721,15.29911 -2.55317,12.70787 -3.3771,15.25289 -5.55847,17.16937 -3.07048,2.69763 -6.49915,2.88312 -9.24222,0.5 -1.10788,-0.9625 -11.34994,-16.6 -22.76013,-34.75 C 509.06768,651.4921 507.46106,648.09859 511.05,644.52942 513.21292,642.37842 581.36334,617 584.97666,617 588.4073,617 593,620.7696 593,623.58541 c 0,0.92197 -2.08809,6.35433 -4.64021,12.07191 -2.55211,5.71758 -4.46461,10.51174 -4.25,10.65369 0.21462,0.14195 3.76521,1.07979 7.89021,2.08409 19.34005,4.70866 36.94532,14.62694 49.88188,28.10196 L 650,684.95308 v -47.62032 -47.62031 l -8.07598,0.67351 c -4.44179,0.37043 -11.22121,1.33513 -15.06538,2.14378 C 623.01448,593.33838 618.97821,594 617.88917,594 614.64125,594 611,589.56476 611,585.60861 c 0,-3.06819 2.86277,-6.96817 24.07337,-32.79545 13.24036,-16.12224 25.56292,-30.97893 27.38347,-33.01486 3.85136,-4.30699 7.4247,-5.50422 11.45083,-3.83654 3.2213,1.3343 55.02582,63.33871 56.42409,67.53353 1.17063,3.51189 -1.99836,9.6986 -5.41874,10.57881 -1.42284,0.36615 -6.82284,-0.15387 -12,-1.15562 C 707.73586,591.91673 700.575,590.80475 697,590.44742 l -6.5,-0.64969 -0.13018,47.10114 c -0.0716,25.90562 -0.0333,47.10113 0.0852,47.10113 0.11844,0 4.234,-3.9375 9.14567,-8.75 13.145,-12.87958 30.60196,-22.15452 50.39932,-26.77733 4.125,-0.96321 7.60466,-1.83077 7.73258,-1.92789 0.12791,-0.0971 -1.78459,-4.96348 -4.25,-10.81411 C 751.01716,629.88004 749,624.45789 749,623.68144 749,620.64877 753.05283,617 756.42134,617 c 4.58413,0 71.61507,25.57714 73.82866,28.17097 0.9625,1.12783 1.75,3.18782 1.75,4.57775 0,1.58878 -8.19644,15.28624 -22.07388,36.88871 -23.10122,35.96078 -23.50427,36.43822 -29.49202,34.93539 -3.40735,-0.85519 -4.69738,-4.26554 -7.48205,-19.77976 -1.25444,-6.98882 -2.56398,-13.16515 -2.91009,-13.72516 -0.41138,-0.66563 -3.45638,-0.34299 -8.7935,0.93175 -35.42246,8.46042 -55.83665,31.89104 -64.3949,73.90996 -1.84491,9.05806 -2.24357,15.32529 -2.75528,43.31464 -0.59104,32.32818 -0.62582,32.7518 -2.87349,35 -2.17154,2.17206 -3.06003,2.28574 -19.5,2.49509 -9.47363,0.12064 -18.21106,-0.19266 -19.41649,-0.69621 z M 429.02975,606.47194 c -9.71322,-4.36814 -13.4998,-14.43473 -9.08629,-24.1558 6.12125,-13.4825 27.01908,-13.41616 33.16021,0.10526 5.34871,11.7767 -2.35367,24.40303 -15.41386,25.26759 -3.2418,0.2146 -6.49238,-0.24222 -8.66006,-1.21705 z m 71.70472,-67.55999 c -9.31434,-2.19443 -20.74945,-10.21438 -26.13695,-18.33099 -5.51679,-8.31139 -7.77085,-15.59565 -7.91584,-25.58096 -0.37585,-25.88308 19.68113,-46.09747 45.61754,-45.97555 28.9865,0.13625 50.6021,28.89867 43.16787,57.44059 -5.28153,20.27716 -22.61908,33.7 -43.18554,33.43451 -4.27985,-0.0553 -9.47604,-0.49967 -11.54708,-0.9876 z m 90.02461,-87.33488 c -5.61199,-2.00294 -8.47112,-4.18436 -11.51096,-8.7825 -2.35298,-3.55915 -2.74812,-5.18382 -2.74812,-11.29916 0,-6.12299 0.39368,-7.73713 2.75854,-11.31032 1.51719,-2.29241 4.63433,-5.40936 6.92697,-6.92655 3.69387,-2.44449 5.09584,-2.75854 12.31449,-2.75854 7.19633,0 8.6266,0.31801 12.26775,2.72761 6.19261,4.09807 9.7516,10.83606 9.65143,18.27239 -0.12448,9.24047 -4.30828,15.29491 -13.41918,19.41909 -5.17479,2.34244 -10.87429,2.57335 -16.24092,0.65798 z M 384.31509,392.90229 c -7.00885,-2.69477 -14.5244,-9.95764 -18.00771,-17.40229 -2.42411,-5.18086 -2.80738,-7.22871 -2.80738,-15 0,-7.64547 0.39853,-9.85003 2.64796,-14.64796 3.37209,-7.1925 9.51158,-13.33199 16.70408,-16.70408 C 387.71895,326.86618 389.81374,326.5 398,326.5 c 8.45069,0 10.10749,0.3112 15,2.81745 7.20677,3.69177 12.09794,8.54799 15.62976,15.51808 2.59491,5.12111 2.86913,6.62371 2.85871,15.66447 -0.01,8.55992 -0.36344,10.72004 -2.45513,15 -3.48785,7.13672 -11.70382,14.85886 -18.52404,17.41064 -7.42068,2.77643 -18.96082,2.77275 -26.19421,-0.008 z"
       id="path1" />
  </g>
</svg>
