<?xml version="1.0" encoding="UTF-8" standalone="no"?>
<!-- Created with Inkscape (http://www.inkscape.org/) -->

<svg
   version="1.1"
   id="svg1"
   width="1024"
   height="1024"
   viewBox="0 0 1024 1024"
   xmlns="http://www.w3.org/2000/svg"
   xmlns:svg="http://www.w3.org/2000/svg">
  <defs
     id="defs1" />
  <g
     id="g1">
    <path
       style="fill:#000000"
       d="M 488,855.97933 C 426.6747,851.28687 374.82313,835.07794 324.52195,804.87566 302.13025,791.43104 270.44515,765.51358 247.49376,741.86891 215.00265,708.39637 190.28607,668.81051 173.14527,622.79303 158.27746,582.87781 151.56785,544.59325 151.62501,500 c 0.0354,-27.60503 1.87892,-46.73218 6.9396,-72 11.61064,-57.97152 37.10174,-111.91116 75.82187,-160.44051 10.62219,-13.31317 36.38915,-38.98664 50.11352,-49.93167 55.45801,-44.22715 119.7207,-70.75109 189.40673,-78.17621 17.20947,-1.83368 56.44571,-2.10518 72.59327,-0.50232 63.9595,6.34885 122.28301,27.93103 174.43048,64.54669 31.92946,22.41946 65.69685,56.38116 87.0034,87.50402 18.333,26.77936 34.62578,59.43549 44.6259,89.44511 12.8376,38.52471 18.67347,75.07195 18.69133,117.05489 0.0175,41.13694 -5.67011,76.81637 -18.65486,117.02548 C 848.11306,628.40833 845.53087,633 842.20684,633 c -0.94339,0 -6.88836,-1.98411 -13.21105,-4.40912 -7.69321,-2.95068 -12.11291,-5.23088 -13.36145,-6.8934 -1.85393,-2.46866 -1.83414,-2.57464 3.15088,-16.87158 C 846.30817,525.89052 842.67938,441.4623 808.44439,364.234 777.82327,295.15797 725.29632,240.24243 658.5,207.47109 618.34216,187.76902 582.10373,177.84997 534.25,173.46183 L 527,172.79702 v 26 26 l 7.25,0.68334 c 53.81824,5.07263 101.13416,23.34101 143.0172,55.21804 14.78785,11.25498 39.45243,36.23441 50.83799,51.48694 30.64252,41.04989 48.44065,86.13366 53.93604,136.62333 1.70553,15.66981 0.67615,52.02535 -1.88832,66.69133 -2.5146,14.38078 -7.0422,33.2817 -8.80099,36.74058 -2.97415,5.84905 -11.35369,7.87834 -18.1084,4.38535 -6.46367,-3.3425 -7.54,-9.14802 -4.22938,-22.81258 8.09423,-33.40896 9.14096,-70.74344 2.89952,-103.41975 C 739.01908,382.88561 696.11084,321.94113 636.73663,286.80254 607.56898,269.54066 574.62189,258.51071 540.19972,254.48413 533.22162,253.66786 527.397,253 527.25613,253 527.11526,253 527,266.19555 527,282.32345 v 29.32344 l 12.25,1.80192 c 47.89863,7.04565 89.20245,31.61855 117.74683,70.05119 17.39458,23.42036 28.04331,46.93891 33.53619,74.06728 2.95085,14.57377 3.02139,16.93017 0.63971,21.37106 -3.3996,6.33892 -11.02213,8.65055 -17.84649,5.41218 -4.92184,-2.33556 -5.98392,-4.475 -8.37624,-16.87291 C 661.92735,451.8131 657.73329,439.27662 650.90646,425.5 642.96112,409.46622 633.78692,396.78982 620.5,383.48606 603.43641,366.40083 585.01708,354.96565 562.33495,347.37574 552.12776,343.9602 534.4789,340 529.46454,340 H 527 v 23.54545 c 0,23.4792 -0.007,23.55217 -2.38505,25.93051 -6.51582,6.51582 -23.12175,5.29144 -26.42026,-1.94802 C 497.38119,385.74252 497,377.70551 497,362.3394 v -22.56649 l -4.75,0.65603 c -16.43729,2.27015 -35.14817,7.62922 -47.98532,13.74367 l -7.0571,3.36137 -0.47189,-4.18653 c -0.46099,-4.0899 -5.06662,-14.67508 -8.28048,-19.03115 -1.58477,-2.14799 -1.48309,-2.24343 6.21684,-5.83567 15.97197,-7.45139 38.94454,-13.93276 56.57795,-15.96263 l 5.75,-0.66191 v -29.5 -29.5 l -5.75,0.65331 c -34.88686,3.96383 -61.62115,11.66614 -89.21307,25.70285 C 346.4956,307.46752 303.07306,356.12418 282.19482,413.5 275.50671,431.87972 268,465.92518 268,477.87834 V 481 h 31.35326 31.35327 l 0.64385,-7.61672 c 2.03203,-24.03889 13.22065,-55.88395 27.30233,-77.70793 l 4.40352,-6.82464 5.47523,5.00405 c 4.77099,4.36042 13.97418,9.14524 17.59008,9.14524 0.57559,0 -0.27588,1.6875 -1.89214,3.75 -11.31601,14.44024 -21.67057,40.97102 -25.56366,65.5 L 357.27699,481 H 383.2385 409.2 l 3.24205,3.25 c 5.46958,5.483 5.95791,18.14499 0.88376,22.91531 -2.45526,2.30824 -2.78421,2.33806 -29.03784,2.63204 l -26.55446,0.29735 0.6852,6.70265 c 1.6692,16.32833 8.15831,38.43907 15.65992,53.35904 18.7766,37.34479 48.88413,63.10829 89.85629,76.89146 14.1685,4.76633 17.06508,7.2959 17.06508,14.90283 0,6.62193 -1.31961,9.66396 -5.22507,12.04512 -4.68048,2.85369 -8.73736,2.49215 -21.95881,-1.95693 C 411.70696,657.86895 379.09649,631.88492 356.51487,594.50921 343.49172,572.95411 333.65059,543.18422 331.22296,518 L 330.5,510.5 298.75,510.23595 267,509.97191 v 2.77017 c 0,1.5236 0.68054,8.58794 1.51231,15.69854 7.18985,61.46417 37.55161,117.09645 85.85561,157.31446 25.57506,21.29385 59.37303,38.18536 94.13208,47.04523 24.91096,6.34965 48.01981,8.70299 75.20688,7.65885 l 18.20688,-0.69925 2.95747,2.95747 c 5.02456,5.02456 5.50906,16.79326 0.86346,20.97368 -3.38406,3.04519 -5.0233,3.38283 -21.23469,4.37375 -45.01585,2.75158 -93.81609,-7.1782 -135,-27.46954 C 307.76701,700.32536 252.68303,623.00554 241.52638,532.88887 240.68687,526.10784 240,518.18378 240,515.27986 V 510 h -27.14295 -27.14296 l 0.69427,10.25 c 2.12888,31.43011 8.97358,64.08298 19.16415,91.42316 35.58592,95.47316 119.87541,172.24794 217.71724,198.30696 30.91006,8.23253 54.82254,11.35039 87.21025,11.37101 31.40293,0.02 58.6698,-3.43379 86,-10.89326 4.95,-1.35104 10.42797,-2.45676 12.17327,-2.45716 7.21582,-0.002 12.32673,8.80763 12.32673,21.24653 0,10.1014 -1.11373,10.95406 -21.1541,16.19543 -33.67738,8.80801 -78.83736,13.0624 -111.8459,10.53666 z M 240.47517,474.75 c 5.27265,-49.07206 19.34619,-89.2252 44.50702,-126.98271 11.89864,-17.85566 20.09732,-27.88676 34.99527,-42.8168 22.53232,-22.58085 43.62229,-37.69819 72.52254,-51.98433 31.26243,-15.45382 63.35359,-24.58179 96.75,-27.51942 L 497,224.76502 V 198.88251 173 l -3.25,0.001 c -6.94656,0.003 -30.95386,3.23312 -45.25,6.08904 C 394.91321,189.79521 344.45659,213.7785 304,247.7747 292.0131,257.84745 267.52574,282.90911 259,293.83008 224.50924,338.0107 202.83096,384.19965 192.50876,435.5 189.68522,449.53271 187,469.37587 187,476.20846 V 481 h 26.40181 26.40182 z m 410.27542,366.26845 -2.51913,-1.98154 -0.50163,-30.26846 c -0.53201,-32.1011 -1.46793,-40.77056 -6.13174,-56.79827 -1.35558,-4.6586 -3.65893,-11.17018 -5.11855,-14.47018 -7.0994,-16.05075 -22.00438,-32.84966 -35.38448,-39.88071 -8.61594,-4.52754 -22.74062,-8.37618 -24.44788,-6.66145 -0.77604,0.77943 -1.07395,5.66131 -0.92083,15.08962 0.22572,13.89846 0.21931,13.94204 -2.29096,15.58683 -2.0075,1.31537 -3.01274,1.42368 -4.96356,0.53483 -3.27671,-1.49297 -50.49945,-35.89796 -52.72183,-38.41145 -2.13782,-2.41786 -2.27581,-7.089 -0.26871,-9.09611 2.1416,-2.14159 64.50056,-26.69196 67.75675,-26.67545 4.28515,0.0217 21.44165,5.84449 30.25402,10.26794 11.14198,5.59281 21.46713,12.76289 29.8583,20.73447 l 7.14964,6.79212 -0.27861,-47.58559 c -0.15323,-26.17208 -0.37823,-47.66646 -0.5,-47.76529 -0.12176,-0.0988 -6.74639,0.86405 -14.72139,2.13973 -18.64477,2.9824 -19.54377,2.97765 -22.64123,-0.11981 -4.45456,-4.45456 -6.69015,-1.16317 38.50956,-56.69654 15.25819,-18.74654 17.51543,-20.71828 22.06516,-19.27425 1.63928,0.52029 48.08427,54.24204 57.84337,66.90597 2.84261,3.68872 2.8045,5.82774 -0.16536,9.28041 l -2.3885,2.77679 -16.54666,-2.29769 c -9.10067,-1.26374 -17.47585,-2.54068 -18.61151,-2.83767 L 691,589.76674 v 47.73487 47.73487 l 9.47658,-9.05967 c 5.21212,-4.98282 12.62284,-10.92883 16.46827,-13.21336 7.8091,-4.6393 25.0919,-11.02058 35.17383,-12.98714 l 6.61869,-1.29102 -3.93841,-9.59265 c -4.57392,-11.14054 -5.01812,-15.68701 -1.78818,-18.30246 1.21594,-0.9846 2.99842,-1.79018 3.96109,-1.79018 0.96267,0 14.75032,4.90322 30.63922,10.89603 15.8889,5.99282 31.58891,11.90831 34.88891,13.14552 6.65626,2.49552 9.5,5.02855 9.5,8.46203 0,1.31425 -6.42767,11.55129 -15.15661,24.13922 -8.33614,12.02146 -18.7419,27.0322 -23.12392,33.3572 -8.54982,12.3408 -9.13659,12.96132 -12.27834,12.98469 -4.39389,0.0327 -5.39265,-2.02288 -8.25319,-16.98601 L 770.41618,690.5 l -5.95809,0.0977 c -8.05119,0.13195 -21.38032,4.86746 -30.19527,10.72763 -18.93683,12.58917 -31.44258,32.95412 -37.41273,60.92458 -1.90769,8.93763 -2.26225,14.51927 -2.76896,43.59014 l -0.58113,33.34 -2.36078,1.91 c -2.12549,1.71963 -4.13033,1.91 -20.11515,1.91 -16.18504,0 -17.97702,-0.17515 -20.27348,-1.98155 z M 360.31382,673.04977 C 356.3252,670.61773 355,668.18334 355,663.28825 c 0,-11.85353 17.04353,-15.60834 21.57878,-4.75395 1.81636,4.34716 1.79359,6.84494 -0.0957,10.49843 -2.94888,5.70251 -10.37805,7.54819 -16.16925,4.01704 z m 170.37683,-43.13845 c -11.43157,-3.51219 -12.97198,-3.77285 -14.32142,-2.4234 -1.94559,1.94559 -7.23129,1.94689 -9.38003,0.002 -1.49667,-1.35447 -3.08299,-1.14399 -15.42081,2.04604 -10.70313,2.76736 -14.06472,3.29672 -15.16046,2.38733 C 475.41701,631.1012 475,628.43906 475,622.93563 v -7.81948 l 12,-8.19826 c 6.6,-4.50904 12.00198,-8.69767 12.00441,-9.30807 0.009,-2.22553 -4.14633,-42.14356 -4.50405,-43.26973 -0.24806,-0.78092 -5.6996,0.49315 -16.68441,3.89929 -59.16007,18.34421 -59.71004,18.49781 -62.05307,17.33075 -2.45205,-1.22136 -3.55132,-5.7349 -3.68876,-15.14582 -0.0891,-6.10184 -0.72115,-5.43964 18.92588,-19.82882 7.975,-5.84077 24.7375,-18.12755 37.25,-27.30396 l 22.75,-16.68438 0.008,-21.55357 c 0.009,-24.90524 0.90878,-32.20763 5.01132,-40.65858 3.74155,-7.70735 11.64649,-15.395 15.83014,-15.395 4.33061,0 12.35805,7.63157 16.10961,15.31518 4.03424,8.26256 4.99788,16.12004 5.02157,40.94541 l 0.0198,20.76059 37.62796,28.10085 37.62797,28.10086 -0.49511,6.16797 C 607.09529,566.68196 603.87991,573 600.32591,573 598.01435,573 572.8732,565.84939 544,556.97987 c -5.225,-1.60507 -10.61744,-3.04465 -11.98319,-3.19908 l -2.4832,-0.28079 -1.70493,18 c -0.93771,9.9 -1.73277,20.27151 -1.76681,23.0478 l -0.0619,5.04779 12,8.23986 12,8.23985 v 7.76235 c 0,8.18368 -0.89779,10.21848 -4.45,10.08575 -1.1275,-0.0421 -7.81421,-1.84756 -14.85935,-4.01208 z m 62.57298,-183.8872 C 585.52061,444.19159 580,436.92224 580,428.55903 c 0,-10.0756 6.36562,-16.77306 16.45746,-17.31538 7.47249,-0.40157 12.86089,2.3324 16.31269,8.27673 4.75264,8.18449 1.41431,20.80616 -6.57184,24.84702 -3.72279,1.88367 -9.0777,2.56955 -12.93468,1.65672 z m -205.2701,-56.89859 c -18.4108,-6.04011 -26.21265,-28.10722 -15.60466,-44.13696 5.45917,-8.24937 17.25614,-13.85269 26.513,-12.59313 6.15869,0.83799 14.38922,4.97671 17.71039,8.90565 15.70389,18.57769 4.17148,47.13412 -19.51268,48.31712 -3.62977,0.1813 -7.72749,-0.0404 -9.10605,-0.49268 z"
       id="path1" />
  </g>
</svg>
