<?xml version="1.0" encoding="UTF-8" standalone="no"?>
<!-- Created with Inkscape (http://www.inkscape.org/) -->

<svg
   version="1.1"
   id="svg1"
   width="1024"
   height="1024"
   viewBox="0 0 1024 1024"
   xmlns="http://www.w3.org/2000/svg"
   xmlns:svg="http://www.w3.org/2000/svg">
  <defs
     id="defs1" />
  <g
     id="g1">
    <path
       style="fill:#7f7f7f;stroke:none"
       d="M 321,661 C 295.65039,643.91284 271.82632,626.86969 251.16975,604 212.53989,561.23132 187,501.05945 187,443 h 59 c 0.012,110.27863 102.76932,193.98853 208,194 l 1,-23 C 380.20822,614 313.77112,573.71362 282.30865,505 273.03812,484.7533 270.98495,464.46527 267,443 h 67 c 1.46051,18.47974 7.92657,36.31311 17.61188,52 7.73868,12.534 18.46344,23.27246 30.38812,31.84491 C 464.02032,585.80768 579.31378,511.23169 563.08026,413 560.94965,400.10712 557.07794,387.29803 550.39661,376 542.35248,362.3974 532.66479,349.76428 520,340.13043 502.32089,326.68237 481.13876,318.74738 459,317 v -65 c 114.34369,0.31549 192.99585,121.45551 165.11572,227 -5.5614,21.05353 -15.08319,41.45245 -28,59 -6.3891,8.67957 -21.41369,19.97687 -24.42279,30 -2.08215,6.93555 0.73957,17.81012 1.30707,25 27.31549,-14.09509 49.07397,-49.84802 61.30554,-77 C 682.61835,408.75378 627.30969,277.7699 515,240.33331 497.12299,234.37433 477.91919,230.00214 459,230 v -57 c 23.43948,0.0647 47.68362,5.04102 70,11.97607 C 673.11957,229.76276 749.77246,394.2583 690.57251,533 675.1239,569.20557 651.73932,600.15051 623,626.91052 c -8.63593,8.04114 -18.29578,15.36365 -28,22.06403 -4.52393,3.12359 -12.18994,6.30432 -14.97223,11.2099 C 575.53949,668.0979 580.99396,686.89087 581,696 605.91455,688.67126 631.10431,666.17542 650,649.16901 738.23889,569.75275 769.47052,440.09198 727.57483,329 711.05475,285.19476 684.79962,245.64404 650,214.16974 559.13239,131.98505 417.67557,113.43835 309,170.78088 184.98154,236.21912 122.41889,383.58734 164.02547,518 179.16898,566.92212 206.32838,613.62054 245,647.71448 c 9.27979,8.18133 19.80597,13.50952 29,21.57025 3.70444,3.24786 8.83499,10.039 14,10.72223 3.45068,0.45642 7.22629,-2.74268 10,-4.40662 7.6174,-4.56982 16.30219,-8.75995 23,-14.60034 M 438,173 v 57 c -99.37003,0.0113 -191.93428,92.63715 -192,192 H 187 C 187,289.32782 305.70593,173.36499 438,173 m 0,79 v 65 c -54.00461,6.8609 -99.61203,49.47906 -104,105 h -67 c 3.81207,-88.7699 80.2229,-170 171,-170 m -102,83.74072 c -16.62216,0.22126 -16.90805,26.07257 0,26.07257 16.87515,0 16.87863,-26.29724 0,-26.07257 M 438,339 c 0,11.41187 -2.81006,27.07477 0.51389,37.99615 1.63748,5.38031 7.97451,9.31568 13.48226,7.2577 C 464.31494,379.65082 459,349.62494 459,339 c 59.09949,0.48914 95.47095,67.42139 80.57172,120 -10.24329,36.14795 -42.02451,61.18488 -78.57172,66.42053 -14.71295,2.10773 -31.11636,0.2793 -45,-5.03241 C 401.41867,514.80951 387.62711,506.15625 377.61496,494 365.96423,479.85431 356.38696,461.74365 356,443 c 9.86035,0 24.76154,2.8053 33.99924,-0.74231 7.55343,-2.90082 10.57055,-12.36194 3.89196,-17.82404 C 386.19382,418.13831 365.58405,422 356,422 c 0.33945,-41.00934 40.89365,-82.14691 82,-83 m 6,87 c -6.04074,1.43811 -18.65408,-1.73059 -23.39661,2.02777 -2.76837,2.19385 -1.78167,7.89838 1.54474,8.94446 5.4047,1.69964 15.38278,1.25751 20.85187,0.0278 l 1,1 c -1.53497,5.19299 -2.6283,15.74084 -0.39661,20.85187 1.41312,3.23633 7.02777,4.29724 9.36884,1.40582 C 456.47162,455.93567 454,442.43048 454,437 c 5.27545,1.06561 15.79034,2.61932 20.86188,0.20679 3.07593,-1.4632 4.23074,-6.87946 1.39584,-9.17902 C 472.08017,424.6391 459.23923,427 454,427 c 0,-5.30145 2.37708,-18.42871 -1.60339,-22.39661 -2.50187,-2.49395 -7.38898,-1.68475 -8.79322,1.54474 C 441.62744,410.69244 442.63467,421.23138 444,426 m 367,74 v 60 c 0,7.12445 2.34137,19.23706 -0.60339,25.77161 -1.43268,3.17907 -5.42255,3.27221 -8.39661,3.83947 -7.58051,1.44593 -14.90466,3.78199 -22,6.81641 C 761.6604,604.27057 746.2002,617.81 736.01465,635 720.36475,661.41205 721,688.38245 721,718 v 90 41 c 0,5.15332 -1.51703,13.2948 1.02777,17.94135 1.90131,3.47155 5.3764,3.98651 8.97223,4.05401 9.03699,0.16968 23.52875,2.65839 31.98071,-0.59875 C 769.93311,867.71735 768,857.88904 768,852 c 0,-17.25696 -2.0105,-35.95416 0.75385,-53 C 773.13153,772.00555 791.21429,747.60608 819,741.66895 832.34027,738.81848 845.56036,741 859,741 c -1.00189,6.80957 -8.4776,20.46802 -4.80634,26.77161 3.73835,6.41876 11.08173,-0.1482 14.80634,-2.88733 12.9726,-9.5401 26.07355,-18.91138 39,-28.51392 C 913.19336,732.51245 931.25568,723.40009 930.53394,716 929.83978,708.88281 915.28552,702.16388 910,698.42438 c -13.24786,-9.37281 -26.58582,-18.63678 -40,-27.7685 -3.58533,-2.44067 -10.03308,-8.94275 -14.5625,-5.04785 -5.52917,4.75452 2.70142,21.67041 4.5625,27.39197 -34.1554,-0.004 -66.86414,-0.9198 -94,24 0,-29.18604 2.75201,-59.70715 31,-76.12341 C 814.7063,630.58655 835.13074,635.20776 847.89508,616 855.84692,604.03406 854,589.64941 854,576 v -76 c 6.20319,2.01849 26.06061,12.00946 31.25385,6.33252 C 889.55481,501.63098 882.21484,493.81525 879.66669,490 870.25409,475.90692 860.40161,462.10101 851,448 c -3.62738,-5.44055 -11.25525,-21.99323 -18.99695,-21.45374 -7.72931,0.53858 -16.08752,18.60804 -20.00384,24.45374 -9.02228,13.46716 -18.66315,26.51929 -27.6659,40 -2.58557,3.87164 -9.54998,11.8396 -3.89966,16.10187 C 786.23474,511.47778 804.70789,502.04742 811,500 m -480,7.51855 c -17.98355,2.89563 -13.77109,31.14948 4,27.91199 17.84888,-3.25158 13.95789,-30.80346 -4,-27.91199 M 467,731 c 0,-13.724 -1,-27.29523 -1,-41 0,-4.39563 1.4155,-12.19397 -2.43365,-15.38116 C 457.84753,669.88354 444.69174,682.28589 440,685.30786 417.36761,699.88525 393.34845,713.59045 372,730 v -45 c 0,-4.2168 1.6344,-13.03491 -1.74228,-16.24231 -5.08743,-4.83227 -21.75528,9.58801 -26.25772,12.57489 -25.28784,16.7757 -52.9418,31.17761 -77,49.66742 0,-13.72339 -1,-27.30206 -1,-41 0,-4.38904 1.48654,-12.21729 -2.3179,-15.39587 -6.30261,-5.26575 -18.52202,6.06982 -23.6821,9.34265 -17.62926,11.18152 -35.33888,22.24054 -53,33.37188 -5.81076,3.66242 -17.49759,8.13294 -20.25772,14.77472 C 163.24748,740.50293 166,754.94049 166,764 v 74 c 0,7.53674 -3.53616,27.55908 4.13348,31.97223 C 175.03867,872.79468 184.48689,871 190,871 h 49 179 109 c 7.93842,0 31.81982,3.9588 37.25769,-2.43365 5.75238,-6.76209 0.39319,-26.37647 -0.16821,-34.56635 -2.23975,-32.67444 -4.76044,-65.32825 -7,-98 -2.87488,-41.9397 -7.19531,-84.01172 -9.05011,-126 -0.44239,-10.01392 -1.75513,-19.98633 -2.05329,-30 -0.11981,-4.02295 -0.39685,-9.4126 -5.04394,-10.68213 C 529.29449,566.13605 513.08734,569 501,569 c -4.03589,0 -10.45776,-1.17023 -13.39661,2.31787 -4.7211,5.60352 -3.50177,24.44043 -3.59954,31.68213 -0.34232,25.35388 -4.66535,50.64478 -5.0077,76 -0.16351,12.11145 -0.99459,24.98792 -2.57177,37 -0.48526,3.6958 0.67651,9.48883 -1.45215,12.68213 C 473.23557,731.28735 469.733,730.96771 467,731 M 219.14815,772.60339 C 228.13951,768.67767 245.19479,772 255,772 c 3.30588,0 8.81192,-0.98132 11.39661,1.60339 4.90835,4.90839 1.64883,24.68396 1.60263,31.39661 -0.0214,3.10229 0.21386,6.92908 -3.14737,8.39661 C 255.8605,817.32233 238.80524,814 229,814 c -3.30594,0 -8.81189,0.98132 -11.39661,-1.60339 -4.90837,-4.90839 -1.64883,-24.68396 -1.60263,-31.39661 0.0213,-3.10229 -0.21385,-6.92908 3.14739,-8.39661 m 86.99998,0 C 315.37231,768.57599 332.9368,772 343,772 c 3.30588,0 8.81192,-0.98132 11.39661,1.60339 4.90838,4.90839 1.64883,24.6839 1.60263,31.39661 -0.0214,3.10236 0.21389,6.92908 -3.14737,8.39661 C 343.62762,817.42401 326.0632,814 316,814 c -3.30594,0 -8.81189,0.98132 -11.39661,-1.60339 -4.90835,-4.90839 -1.64883,-24.68396 -1.60263,-31.39661 0.0214,-3.10229 -0.21383,-6.92908 3.14737,-8.39661 m 88,0 C 403.13953,768.67767 420.19479,772 430,772 c 3.30588,0 8.81192,-0.98132 11.39661,1.60339 4.90835,4.90839 1.64883,24.6839 1.60263,31.39661 -0.0214,3.10229 0.21386,6.92908 -3.14737,8.39661 C 430.8605,817.32233 413.80524,814 404,814 c -3.30597,0 -8.81189,0.98132 -11.39661,-1.60339 -4.90835,-4.90839 -1.64883,-24.68396 -1.60263,-31.39661 0.0214,-3.10229 -0.21386,-6.92908 3.14737,-8.39661 z"
       id="path1" />
  </g>
</svg>
