<?xml version="1.0" encoding="UTF-8" standalone="no"?>
<!-- Created with Inkscape (http://www.inkscape.org/) -->

<svg
   version="1.1"
   id="svg1"
   width="1024"
   height="1024"
   viewBox="0 0 1024 1024"
   xmlns="http://www.w3.org/2000/svg"
   xmlns:svg="http://www.w3.org/2000/svg">
  <defs
     id="defs1" />
  <g
     id="g1">
    <path
       style="fill:#5e6c38;stroke:none"
       d="m 290,662 c -3.51141,-7.52991 -11.27798,-13.05713 -16.96063,-19 -8.57974,-8.97266 -16.39871,-18.90649 -23.61191,-29 C 219.40823,571.99365 198.00571,519.26642 198,467 h 53 c 0.0107,98.43457 83.48553,188.95667 177,209.57562 17.26651,3.80707 36.61359,-0.75128 54,-2.40582 31.2691,-2.97571 60.14252,-0.80212 90,-13.1814 C 646.45972,630.11652 694.14764,557.02405 704.28162,479 709.0191,442.52484 703.38373,404.33679 690.42358,370 676.46564,333.01947 651.79645,300.03741 621,275.39966 584.93854,246.5498 536.72015,226 490,226 v -52 c 109.80273,4.71381 210.70959,77.03247 249.57483,180 C 755.17249,395.32355 757,435.60529 757,479 c 9.91602,-8.02075 16.90533,-21.16785 25.08105,-31 3.40827,-4.09875 9.14686,-8.68304 10.47065,-14 3.47009,-13.93768 -4.08527,-36.22729 -7.12732,-50 C 774.02667,332.39783 749.01941,283.52197 713.94983,244 619.17352,137.1911 454.0975,107.10333 328,175.30865 211.27364,238.44519 146.06187,371.07495 166.27469,502 c 7.07057,45.7984 24.79709,91.0368 51.44598,129 7.42888,10.58295 19.70653,30.82092 32.27933,35.39587 9.06686,3.2992 30.85269,-1.61633 40,-4.39587 M 463,174 v 52 c -72.16168,0.1991 -140.87921,49.8443 -178.65509,108 -13.85135,21.3241 -23.84302,46.15411 -29.13426,71 -1.6816,7.89618 -3.2692,15.95612 -4.0409,24 -0.27972,2.91577 0.6828,7.8728 -1.91203,9.97223 C 246.22707,441.42426 238.6757,440 235,440 H 198 C 198.0155,298.39209 325.30145,179.91138 463,174 m 0,79 v 41 c 0,3.87604 1.54312,12.07184 -1.02777,15.25769 -2.75971,3.4198 -13.73868,3.50964 -17.97223,4.62659 -13.02689,3.43689 -25.47064,8.61029 -37,15.56555 -6.43658,3.88299 -18.82639,10.35718 -21.79861,17.58954 -1.35593,3.29944 0.67407,7.52234 0.74459,10.96063 0.12894,6.28571 -2.09164,12.91071 -5.73535,17.99921 -4.56512,6.37524 -11.54214,10.84698 -19.21063,12.48303 -3.29572,0.70312 -7.68582,-0.32257 -10.60956,1.54553 -3.56958,2.28076 -4.91253,8.26331 -6.39044,11.97223 -4.69492,11.78229 -7.96497,25.2785 -8,38 H 277 C 282.85153,365.85822 327.18976,301.35767 395,270.30865 416.6319,260.40381 439.58066,255.95972 463,253 M 277,467 h 59 c 1.74554,84.55249 93.76068,144.28168 172,127.33795 C 569.4939,581.02063 614.99182,526.77771 621.16901,465 623.35748,443.11334 620.17084,420.48914 612,400 602.96484,377.34357 588.07489,357.0976 569,341.80786 546.03979,323.40381 518.91388,313.65717 490,310 V 253 C 613.79388,254.0246 700.11029,382.22302 674.57562,498 655.83362,582.97827 584.12805,645.94495 498,655.16589 469.07068,658.26306 438.29474,654.69263 411,644.42358 378.42499,632.16809 350.40448,612.66187 327,587 298.45111,555.69751 277.35538,509.93628 277,467 m 85,0 c 10.13632,0 25.7179,2.91565 34.99615,-1.57251 9.59003,-4.63898 10.48487,-17.96527 0.98841,-23.28784 C 388.69485,436.93292 372.34604,440 362,440 c 2.11969,-49.23517 50.45319,-101.95673 101,-103 0,11.10321 -3.6192,29.98193 1.45679,39.99615 5.1047,10.07093 18.96582,10.099 24.08642,0 C 493.72791,366.77075 490,347.34473 490,336 c 20.08533,2.54047 39.30603,8.89117 56,20.58948 C 560.06384,366.4447 572.01953,379.05774 580.57251,394 626.23474,473.77283 563.64105,575.97388 472,571.96063 455.26974,571.22797 438.85669,566.23315 424,558.75232 409.58676,551.49475 397.42392,541.51538 387.2608,529 372.36887,510.66132 366.28317,489.73328 362,467 M 350,342.5332 c -18.909,4.59034 -11.46283,34.63452 8,29.9336 19.01996,-4.59394 11.45538,-34.65656 -8,-29.9336 m 191,57.12036 c -16.21448,5.013 -8.23517,29.84003 7.99615,24.69367 15.55756,-4.93274 7.34028,-29.43518 -7.99615,-24.69367 m -69,28.8642 c -30.9328,6.60938 -21.12357,54.44074 10,48.1026 31.32825,-6.37982 21.44626,-54.82171 -10,-48.1026 M 778,532 v 116 h -1 c -10.07037,-17.52582 -42.21655,-25.84454 -61,-26 1.54419,-5.96613 8.50385,-22.30237 3.39661,-27.39661 -4.28321,-4.27234 -10.96082,0.92627 -14.39661,3.60804 -11.7085,9.13903 -23.31183,18.41345 -35,27.57873 -4.99414,3.91614 -18.70367,11.06519 -18.70367,18.21289 0,7.24951 13.65942,14.56372 18.70367,18.59729 11.92023,9.53186 23.85834,19.1344 36,28.38111 3.05939,2.32995 10.55603,6.76965 13.97144,2.41516 C 723.82001,688.48987 716.58331,670.63208 715,665 c 58.88538,0.0388 63,73.48291 63,116 v 30 c 0,3.97382 -0.9317,9.46082 1.60339,12.85187 4.75159,6.35589 27.07782,3.86151 34.39582,3.03937 C 821.3418,826.06628 821.98969,820.15625 822,814 v -40 c 0,-40.67603 7.97986,-108.85815 63,-110 -1.32581,3.90887 -2.09601,7.97229 -3.0108,12 -1.01844,4.48419 -5.35065,13.42444 -1.38581,17.39661 4.30945,4.31744 10.92273,-0.66968 14.39661,-3.40046 11.98254,-9.41918 24.07953,-18.69763 36,-28.19525 4.75269,-3.78662 18.70367,-11.03863 18.70367,-17.83947 0,-5.66987 -7.82922,-9.71466 -11.70367,-12.75159 -13.15643,-10.31226 -26.62701,-20.30664 -40,-30.33643 -3.77039,-2.82776 -12.43109,-11.20593 -17.39661,-6.26928 -4.85211,4.82397 2.57953,21.32794 3.39661,27.39587 -18.94037,0.0522 -50.64233,8.61218 -61,26 h -1 l -1,-117 c 6.67511,2.55518 34.15875,13.60193 37.00159,3.98071 1.58618,-5.36828 -4.47376,-11.112 -7.37506,-14.98071 -9.55988,-12.74762 -19.43946,-25.25262 -29,-38 -4.35071,-5.80096 -12.80555,-22.24811 -20.62958,-22.79321 -8.53662,-0.59479 -19.02374,18.69726 -23.62274,24.79321 -9.86939,13.08173 -19.93012,26.03265 -29.94904,39 -2.94342,3.80963 -8.4834,11.03711 -3.1073,15.38196 2.85083,2.30395 6.65125,0.5647 9.68213,-0.3573 7.84589,-2.38672 15.96954,-4.36713 24,-6.02466 M 430.00076,510.65277 c -14.89691,4.67035 -6.86471,27.3924 7.99539,22.69446 14.69825,-4.64679 6.45926,-27.22614 -7.99539,-22.69446 M 192,710 v 13 c -10.53783,1.92615 -8,12.58374 -8,21 0,8.31738 -1.21797,17.52954 3.22453,25 8.34824,14.03821 28.7683,15.01929 38.47145,1.95984 C 228.93958,766.59436 230.28531,761.3031 231,756 l 94,15 v 1 c -26.35016,13.66949 -38.819,49.36517 -41,77 -11.12192,1.24304 -11.20804,18.54175 7.6e-4,19.82562 6.36621,0.72919 19.27008,2.14313 24.72071,-1.76391 C 316.39761,861.55945 310.95609,849.8891 303,849 c 0.0545,-19.77026 10.27292,-38.26611 24.00385,-51.99615 3.44528,-3.44507 9.57968,-10.6037 14.71066,-11.27625 3.37893,-0.44287 7.97635,4.01581 11.28549,5.0517 5.76547,1.80481 12.03751,1.2207 18,1.2207 v 6 c -38.10703,18.13232 -5.77417,77.57947 31,56.64044 4.54706,-2.58905 8.35544,-6.29376 11.2392,-10.64429 3.21313,-4.84747 4.69531,-10.22039 4.75695,-15.99615 0.076,-7.12097 -1.1914,-14.1532 -5.55325,-19.99927 C 408.05475,802.11951 401.26031,799.95605 401,792 c 10.71423,0 20.8027,0.3197 28,-9 h 1 L 457.45602,812 470,848 c -6.57394,2.29901 -14.44269,12.74707 -6.56635,18.91052 4.86634,3.80799 25.27601,3.55225 30.1327,-0.051 10.31103,-7.64978 -4.46866,-17.12433 -6.13349,-22.87811 C 479.96841,818.18408 475.24005,785.09143 447,772 v -1 L 496,763.08026 532,757 c 3.08081,22.85962 34.38184,34.99768 45.11963,10 3.55267,-8.27069 4.64722,-30.4624 1.27698,-38.94519 -1.25507,-3.15906 -4.64612,-3.80621 -6.36884,-6.46918 C 570.07831,718.57214 571,713.43298 571,710 c 8.40973,1.13245 16.46851,4.59747 25,4.96063 14.13074,0.6015 28.36157,-4.52826 42,-7.53625 4.39697,-0.96979 27.04266,-2.75226 19.39197,-12.10651 C 654.5235,691.81073 647.98425,693 644,693 c -12.36127,0 -24.6106,-1 -37,-1 -10.39984,0 -23.89807,2.3028 -33.96063,-0.31787 -6.52228,-1.69873 -9.37128,-8.53516 -17.03937,-8.59876 -7.33026,-0.0608 -10.56848,5.99707 -17,7.59876 -9.72278,2.42126 -22.90576,0.83642 -33,1.2785 -11.63724,0.50958 -33.65286,-4.53247 -43.85187,1.35724 -13.11505,7.57373 12.21649,12.39978 15.85187,13.13123 23.04089,4.63568 39.49072,10.64892 63,4.5509 0,3.17151 0.80066,7.80127 -1.02777,10.58179 C 536.09857,727.4726 532.07642,726.5542 532,735 l -99,-1 c -4.552,-30.3678 -38.90738,-29.00897 -62,-27.96063 -10.43903,0.47394 -19.4473,5.9248 -25.87656,13.97528 -3.14151,3.93371 -4.93423,12.24841 -10.17822,13.66748 C 324.41055,736.53271 309.91953,734 299,734 c -22.64264,0 -45.2977,1 -68,1 L 223.60339,720.77625 223,710 c 23.10983,8.84607 42.04156,1.21954 65,-3.39966 3.78104,-0.76074 27.08517,-3.11255 18.39276,-11.99695 -2.36676,-2.41906 -8.22781,-1.94445 -11.39276,-2.31787 -11.85352,-1.39862 -24.08438,0.1969 -36,-0.32489 -10.8528,-0.47528 -25.51425,1.5008 -35.91049,-1.2785 -6.27001,-1.67627 -8.69969,-7.65125 -16.08951,-7.65125 -7.50424,0 -10.4911,6.06067 -17.01466,7.65509 C 177.74577,693.67749 161.63092,692 149,692 c -10.37286,0 -20.68622,0.94946 -31,0.99927 -3.78941,0.0182 -10.41975,-1.20215 -13.39584,1.74304 -8.97253,8.87915 15.58033,11.51221 19.39584,12.37732 13.22029,2.99737 27.34216,7.80163 41,7.80163 9.07716,0 18.15768,-3.20654 27,-4.92126 m 193,106.38733 c 12.31601,-1.81744 15.07324,17.33789 2.99924,19.38043 C 374.5939,838.03552 371.89072,818.3219 385,816.38733 Z"
       id="path1" />
  </g>
</svg>
