<?xml version="1.0" encoding="UTF-8" standalone="no"?>
<!-- Created with Inkscape (http://www.inkscape.org/) -->

<svg
   version="1.1"
   id="svg1"
   width="1024"
   height="1024"
   viewBox="0 0 1024 1024"
   xmlns="http://www.w3.org/2000/svg"
   xmlns:svg="http://www.w3.org/2000/svg">
  <defs
     id="defs1" />
  <g
     id="g1">
    <path
       style="fill:#2e999f;stroke:none"
       d="m 183,511 h 57 c 0,95.4527 57.2428,185.28833 142,228.74072 32.2038,16.50995 68.70978,28.27405 105,30.2948 11.9191,0.6637 35.00702,6.02875 35.95605,-12.03552 C 523.85553,740.87848 508.35815,742.35059 496,741.1698 460.40402,737.76855 427.047,728.8891 395,712.75232 319.67697,674.82452 270.59488,594.71313 267,511 h 64 c 0,51.87103 29.74271,106.54785 72,136.2793 15.87479,11.16925 33.27356,20.03894 52,25.29248 C 465.98819,675.65436 476.45688,671.59631 477.65973,659 478.47638,650.44818 471.94955,647.3277 465,645 447.76889,639.22852 431.56403,632.46436 417,621.3457 379.93195,593.04651 367.10742,554.67163 359,511 h 41 c 6.26968,0 14.05908,1.20837 19.99615,-1.14813 8.43253,-3.34693 13.09751,-20.83301 5.72532,-27.33802 C 421.1445,478.47528 412.62418,480 407,480 h -47 c 1.71713,-8.85455 3.60825,-17.50287 6.69522,-26 1.44385,-3.9743 4.63187,-8.61951 3.3179,-13 -2.25903,-7.53113 -16.03479,-21.61554 -23.22375,-12.86652 -7.34488,8.93879 -10.22531,23.8158 -12.57871,34.86652 -0.87234,4.09625 -0.79074,13.48334 -4.52856,15.97223 C 325.60413,481.68762 316.72351,480 312,480 h -44 c 7.51706,-31.573 10.38525,-61.23041 25.27005,-91 C 330.79749,313.94513 411.0687,259.60315 495,256 v 58 c -14.86832,0.63831 -36.62308,4.04626 -48.99615,12.80017 -12.55689,8.88397 -4.71738,23.20184 8.99615,25.42206 11.26825,1.82434 28.17133,-7.71948 40,-9.22223 0,15.05164 -0.11597,30.01117 0.91049,45 0.34427,5.02734 -1.04959,11.21405 0.83179,15.98456 3.17084,8.04004 23.37118,9.02185 28.60495,2.78705 C 529.40698,401.93536 528,393.84784 528,388 v -45 c 51.61133,2.2157 97.90289,37.32312 122.42358,81 9.82367,17.49817 9.96961,38.81128 18.87964,55.99615 3.17511,6.12385 10.20172,8.58497 16.69293,6.65973 8.27839,-2.45532 10.26478,-11.04858 9.27082,-18.65588 -1.98712,-15.20831 -6.36756,-29.79504 -12.06714,-44 C 665.62018,380.18677 629.47845,344.83203 586,326.86108 573.51801,321.7019 560.32434,317.9361 547,315.75385 542.5929,315.03204 532.83801,315.63318 529.60339,312.39661 526.86981,309.66144 528,303.50421 528,300 v -32 c 2.4e-4,-3.8017 -1.13416,-10.57855 4.05865,-11.25769 19.12665,-2.5014 43.08411,5.61688 60.94135,11.591 67.79126,22.67951 127.98273,82.4751 149.80554,150.66669 6.36859,19.90045 10.6756,41.1272 12.10498,62 0.92639,13.52753 -1.5169,27.56903 0.27777,41 1.15619,8.65289 10.74231,17.07263 19.79627,14.56555 C 785.34601,533.69641 784,510.46136 784,502 784,466.37207 779.32843,430.50177 766.57562,397 730.4129,302.00024 632.09753,227 529,227 v -52 c 144.33936,0 270.7547,116.45831 303.11572,253 9.12067,38.48297 9.62824,78.01495 3.60962,117 -2.68567,17.3963 -9.47363,34.63525 -11.40973,52 -0.91198,8.17932 14.78217,25.78918 23.5802,23.54706 5.33094,-1.35858 7.76209,-10.01471 9.409,-14.54706 5.29217,-14.56445 9.23187,-29.77698 12.08411,-45 C 881.49963,496.36224 875.05444,426.9278 849.9892,366 786.07446,210.63794 624.21149,121.02679 459,143.28241 414.83765,149.23151 370.3515,163.32605 332,186.20062 267.09372,224.9137 214.00673,279.77295 182.30864,349 c -48.5985,106.13672 -41.63957,237.80493 18.89506,338 28.42624,47.05023 70.17118,87.70172 116.7963,116.57562 64.74622,40.09589 147.74744,63.07404 224,53.70911 19.72565,-2.42261 39.03955,-5.76599 58,-11.95447 C 610.49823,841.90375 618.84595,834.05237 615.36188,822 609.54413,801.87482 585.3623,812.78168 572,816.12653 522.0589,828.62787 470.48099,825.18591 421,812.11572 290.0994,777.539 183.09087,648.39337 183,511 M 495,174 v 53 C 365.49097,227.01471 240.35915,349.82446 240,480 H 184 C 185.02193,356.565 277.85736,242.67688 388,197.0116 422.82431,182.57336 458.10959,178.66217 495,174 M 380,365 c -9.51077,0 -22.60016,-2.36035 -30.98456,2.99463 -11.6719,7.45471 -9.59717,25.37164 2.98456,30.52234 8.16083,3.34088 19.32312,1.48303 28,1.48303 0,8.06201 -2.05316,19.448 1.00925,27 5.08447,12.53845 23.10589,13.23175 29.9815,1.98535 C 415.50241,421.60565 413,408.37793 413,400 c 8.84622,0 20.15631,1.93195 27.99615,-2.99463 C 452.43408,389.81781 451.14655,372.37817 439,366.57251 431.71973,363.09277 420.88666,365 413,365 c 0,-8.8822 2.70071,-23.12946 -2.22839,-30.90662 -6.4845,-10.23126 -24.66373,-9.44098 -29.54322,1.92127 C 377.77374,344.05902 380,356.36475 380,365 m 214,47.5293 c -24.68762,5.69714 -15.75122,44.67523 9,38.56714 24.78625,-6.11676 15.85059,-44.30188 -9,-38.56714 M 496,481 c -7.80453,0.61597 -21.27643,-1.30591 -27.90585,3.00928 -9.52967,6.203 -8.68631,27.27191 0.92129,32.90124 C 476.2272,521.13605 487.93503,519 496,519 c 0,7.60559 -3.00302,23.49231 1.74228,29.77161 4.04574,5.35363 26.52701,4.56042 30.09335,-1 C 532.44733,540.58136 530,527.15826 530,519 c 8.52747,0 20.41089,2.00732 27.95679,-2.85413 9.95331,-6.41253 8.34942,-27.46319 -1.96064,-32.68908 C 549.00256,479.91193 537.67218,482 530,482 c 0,-7.63983 2.8009,-22.33325 -1.85803,-28.7724 -4.63672,-6.40845 -27.31076,-6.11359 -31.1142,0.83105 C 493.46655,460.56104 496,473.68707 496,481 m 154,113 v 90 h -1 c -7.16168,-15.35718 -30.17371,-24.88977 -45,-30.9892 -4.99255,-2.05389 -13.65881,-3.11541 -17.57715,-6.85418 -7.02167,-6.69983 15.73017,-21.06733 -1.42364,-25.59876 -7.53571,-1.99066 -14.09632,1.29102 -20.99921,3.75 -12.64484,4.5044 -25.32043,8.94544 -38,13.34802 -5.81799,2.02015 -15.07202,4.18262 -16.51157,11.34797 -1.1607,5.77752 5.88456,12.5578 8.84488,16.99615 9.55487,14.32544 18.42426,29.04071 26.94757,44 3.02448,5.30823 6.9303,14.38123 14.67517,11.39587 C 568.76306,718.00104 570.67932,694.23877 573,686 c 41.47266,13.49475 67.49341,40.87183 72.84491,85 2.08295,17.1759 1.15509,34.70801 1.15509,52 0,5.93323 -1.04559,15.36292 5.10876,18.82098 7.02015,3.94458 36.60425,3.78009 40.57337,-3.86493 C 695.15906,833.18506 694,826.2019 694,821 c 0,-12.52124 -1.0174,-25.53473 0.16974,-38 3.01044,-31.61053 13.44647,-63.29114 40.83026,-81.97144 10.5722,-7.21203 22.50464,-9.93298 34,-15.02856 1.59094,8.20361 4.14264,37.1955 15.98535,35.7276 4.94721,-0.61322 7.14502,-5.9472 9.41431,-9.7276 5.2301,-8.71277 10.30267,-17.53809 15.93365,-26 5.80396,-8.7218 11.76642,-17.32751 17.63733,-26 2.27814,-3.36523 5.37018,-7.68555 4.04248,-11.98456 -2.55316,-8.2669 -18.8833,-10.69757 -26.01312,-13.3341 -13.20203,-4.88196 -27.15125,-12.53986 -41,-15.14893 -5.32074,-1.00244 -13.26587,1.08716 -13.79712,7.47144 -0.47467,5.70428 4.75751,12.73901 6.79712,17.99615 -21.40259,7.97998 -54.53668,15.90259 -66,38 h -1 v -62 -27 c 8.59766,-2.02325 19.08203,0.0149 28,0 3.50018,-0.006 8.47437,0.59314 10.25769,-3.22839 C 732.81995,583.13806 725.44421,576.1521 721,571 709.25562,557.38489 697.45203,543.79523 685.91974,530 682.00134,525.31274 676.04987,515.84033 669,516.33716 c -6.70813,0.47278 -11.61285,9.01263 -15.42438,13.66284 -11.12384,13.57159 -22.06384,27.29828 -33.02472,41 -3.73675,4.67114 -13.05883,13.07349 -9.35724,19.86652 C 615.52136,598.80847 641.85272,594 650,594 M 433,572.53241 c -22.25299,5.29498 -12.89343,38.8382 9,34.07715 23.24301,-5.05457 13.69702,-39.47772 -9,-34.07715 z"
       id="path1" />
  </g>
</svg>
