<?xml version="1.0" encoding="UTF-8" standalone="no"?>
<!-- Created with Inkscape (http://www.inkscape.org/) -->

<svg
   version="1.1"
   id="svg1"
   width="1024"
   height="1024"
   viewBox="0 0 1024 1024"
   xmlns="http://www.w3.org/2000/svg"
   xmlns:svg="http://www.w3.org/2000/svg">
  <defs
     id="defs1" />
  <g
     id="g1">
    <path
       style="fill:#000000"
       d="M 474.5,853.53343 C 447.68098,850.7037 421.24887,845.03847 395.87787,836.68225 305.05017,806.76713 230.01008,741.87839 187.05773,656.1111 153.903,589.90767 142.76932,514.8082 155.09286,440.5 164.08906,386.25493 187.59798,330.68603 220.87725,285.00296 280.14889,203.6397 367.39102,152.9781 470,140.3371 c 17.87322,-2.2019 63.87261,-2.50957 80,-0.53507 46.73089,5.72131 85.86387,17.10742 123.49469,35.93195 C 776.96303,227.49321 847.71426,322.19205 867.94421,436 c 3.79358,21.34165 5.20578,38.49044 5.2292,63.5 0.0388,41.38973 -4.56795,71.24018 -16.76786,108.6519 C 851.94152,621.84109 851.17682,623 846.60811,623 843.68606,623 824,603.17513 824,600.23248 c 0,-1.1316 1.80528,-9.24786 4.01173,-18.03614 C 835.95194,550.57056 839,526.40248 839,495.07019 839,459.71585 834.54685,432.03606 823.31568,397.57985 801.82259,331.64101 759.46506,274.13645 702.18628,233.13462 654.3681,198.90497 596.15033,178.16549 534.75,173.48716 l -8.75,-0.6667 v 26.01781 26.01782 l 5.75,0.57624 c 28.25443,2.83154 45.7022,6.40461 69.25,14.18147 58.24339,19.23538 111.01283,60.95402 143.4701,113.42508 19.09954,30.8767 30.92516,63.57038 36.64295,101.30486 2.39784,15.82454 3.475,49.152 2.11965,65.58203 -0.91198,11.05537 -1.04501,11.51733 -4.10339,14.25 C 776.498,536.52684 775.07464,537 770.63345,537 760.60485,537 755.87829,533.55766 755.69539,526.12069 755.64642,524.12931 755.97907,514.175 756.43461,504 758.9907,446.90768 743.24907,396.79499 707.85147,349.33802 699.11357,337.62326 678.66908,316.32118 667.5,307.29392 628.25188,275.57211 584.62028,258.4623 530.75,253.66838 L 526,253.24567 v 29.28333 29.28332 l 5.25,0.6629 c 57.31317,7.23665 103.94602,35.9105 135.02485,83.02478 14.56776,22.08415 25.83626,52.96376 27.42488,75.15372 0.55938,7.81343 0.47539,8.26207 -2.01254,10.75 C 689.32,483.77091 688.37698,484 681,484 c -7.19603,0 -8.35506,-0.26415 -10.47918,-2.38827 -1.31355,-1.31355 -2.67547,-4.12605 -3.02648,-6.25 -3.45875,-20.92851 -8.14862,-35.89849 -16.16063,-51.58446 -7.35895,-14.40741 -15.89672,-26.2067 -27.33371,-37.77548 -13.18255,-13.33447 -24.93496,-21.8232 -41.5,-29.97533 -18.12087,-8.9178 -33.23013,-13.56691 -50.80406,-15.63238 L 526,339.72464 V 368.188 c 0,28.45946 -3.2e-4,28.46367 -2.31445,30.63769 -2.04362,1.91987 -3.43488,2.17431 -11.88922,2.17431 -7.93457,0 -9.97917,-0.32726 -11.93555,-1.9104 L 497.5,397.1792 497.20609,368.5896 C 496.97045,345.66827 496.64946,340 495.58708,340 c -8.54649,0 -35.22332,7.06187 -47.06871,12.45998 -4.27243,1.94701 -7.90019,3.54002 -8.06168,3.54002 -0.1615,0 -1.25292,-2.88266 -2.42538,-6.40591 -1.17246,-3.52324 -3.86673,-8.88268 -5.98727,-11.90985 l -3.85553,-5.50394 7.65575,-3.69713 c 14.78873,-7.14182 37.36636,-13.54545 56.37638,-15.9899 l 4.72065,-0.60701 0.27935,-29.02765 c 0.15365,-15.9652 0.18049,-29.12597 0.0597,-29.24616 -0.45945,-0.45697 -17.19804,1.38511 -26.7803,2.94717 -13.96765,2.27696 -34.16912,7.50826 -46,11.91201 -22.46509,8.36205 -49.23187,23.6491 -68,38.83618 -11.18036,9.04709 -30.69937,29.35231 -39.35758,40.94287 -28.05589,37.55784 -46.0781,82.71475 -49.68794,124.49932 l -0.71273,8.25 h 31.58381 31.58381 l 0.52384,-3.25 c 0.28811,-1.7875 1.0285,-6.85 1.64532,-11.25 3.15816,-22.52854 13.24249,-49.64047 25.66466,-69 2.47038,-3.85 4.63689,-7.16062 4.81447,-7.35693 0.17758,-0.19632 2.58681,1.60368 5.35385,4 2.76703,2.39631 7.69938,5.73273 10.96077,7.41426 l 5.9298,3.05734 -4.56198,7.44266 c -6.3005,10.279 -11.54541,21.70071 -15.79006,34.38568 C 361.12584,456.37722 357,474.42697 357,479.03546 357,480.94599 357.85345,481 388.04545,481 c 31.02884,0 31.04669,10e-4 33.33703,2.29157 1.78567,1.78567 2.43974,3.88577 2.9627,9.51261 0.7488,8.05675 -0.68947,13.23934 -4.19478,15.11533 C 418.8305,508.6259 407.54856,509 387.56574,509 357.07024,509 357,509.00488 357,511.12436 c 0,4.56263 5.11168,27.03601 8.06946,35.47719 8.43115,24.0616 18.69089,40.33436 36.8499,58.44688 18.53036,18.48292 38.3934,30.78004 62.08064,38.43385 10.28126,3.32207 12.48727,4.62553 14.53713,8.58953 C 482.26512,659.28093 475.4867,673 468.19678,673 463.62283,673 446.01047,666.56174 431.5,659.58537 395.19457,642.13037 365.11807,612.42543 347.66649,576.78754 339.20124,559.50065 332.2019,534.91804 330.4298,516.25 L 329.74158,509 h -31.92045 -31.92044 l 0.59833,6.25 c 3.65361,38.1646 11.22786,64.60581 27.12233,94.68235 37.02478,70.06064 108.41651,118.50421 189.41964,128.53259 6.81961,0.84428 16.13968,1.53506 20.71127,1.53506 8.96068,0 13.52622,1.35403 16.74774,4.96697 1.62169,1.81873 2,3.65734 2,9.72005 0,7.18071 -0.12943,7.59268 -3.26578,10.39501 C 516.01818,767.95556 515.78928,768 504.20436,768 468.71856,768 424.16092,756.69236 388,738.51018 364.65167,726.77033 339.94696,709.42619 321.53759,691.84973 273.14011,645.64189 242.18661,579.08866 239.75095,516 l -0.25095,-6.5 -27.90132,-0.26608 -27.90132,-0.26609 0.67727,11.26609 c 2.67553,44.5068 16.58316,91.5448 38.81017,131.26269 8.6865,15.52208 13.66668,23.13519 24.86026,38.00339 19.32766,25.67255 39.75967,46.13378 65.45494,65.54855 39.85394,30.11276 85.4303,50.47879 134,59.8786 24.08397,4.66103 34.63684,5.57785 63.5,5.51681 29.23169,-0.0618 41.70615,-1.29037 67,-6.59848 19.61507,-4.11637 24.58335,-4.46841 29,-2.05488 5.92254,3.23645 8,7.35812 8,15.87197 0,6.92903 -0.19313,7.5741 -3.25,10.8552 -2.79469,2.99968 -4.65097,3.82866 -13.25,5.91716 -14.11393,3.42794 -29.8752,6.27529 -45,8.12945 -18.02003,2.2091 -62.12041,2.75006 -79,0.96905 z M 240,477.74387 c 0,-1.79087 0.68054,-9.07389 1.51231,-16.18449 4.61776,-39.47606 19.75557,-80.63734 41.89833,-113.92592 35.46237,-53.31278 83.28609,-89.88363 142.72352,-109.14082 19.88156,-6.44145 38.62733,-10.14018 65.86584,-12.99601 l 5.5,-0.57665 -0.28239,-25.95999 -0.2824,-25.95999 -2.7176,0.01 c -4.53754,0.0161 -28.14605,2.8321 -37.71761,4.49897 -45.21751,7.87453 -88.68862,24.79156 -125.14053,48.69916 -31.84915,20.8888 -61.85843,49.75592 -84.64452,81.42294 C 211.43294,356.66395 190.80097,412.29809 184.5532,475.25 L 183.98253,481 H 211.99126 240 Z M 649.86078,841.09005 647.5,839.18009 646.88656,806.34005 c -0.60843,-32.57119 -1.17239,-38.67864 -4.94179,-53.51733 -7.20973,-28.38199 -24.76251,-49.85076 -48.89355,-59.8016 -8.46758,-3.49175 -20.05802,-6.4361 -21.05454,-5.34854 -0.41699,0.45508 -2.16934,7.35242 -3.89412,15.32742 -2.60595,12.04937 -3.56508,14.88027 -5.67502,16.75 -1.39649,1.2375 -3.38888,2.25 -4.42754,2.25 -1.03866,0 -3.00799,-1.0125 -4.37629,-2.25 C 549.78933,716.28216 509,652.06066 509,649.4914 c 0,-5.00039 2.54664,-6.25129 39.95869,-19.62747 35.83053,-12.81073 36.5138,-13.00904 39.65728,-11.51002 5.24025,2.4989 5.22425,5.69464 -0.0858,17.13543 -2.50615,5.39965 -4.31935,10.05483 -4.02934,10.34484 0.29001,0.29001 3.55912,1.29723 7.2647,2.23828 10.59125,2.68967 22.12511,7.48528 31.70818,13.18378 8.35981,4.97109 21.29325,16.308 24.80586,21.74376 1.50007,2.32136 1.61925,-0.91197 1.66796,-45.25 L 650,590 l -2.25,0.005 c -1.2375,0.003 -8.44482,0.91489 -16.01627,2.02648 -14.83896,2.17854 -16.3705,1.97828 -19.32211,-2.52644 -1.01471,-1.54864 -1.36564,-3.43832 -0.97166,-5.23212 0.94565,-4.30549 51.85499,-66.45553 55.79161,-68.11029 6.26922,-2.63527 5.0513,-3.85864 51.98654,52.21902 C 728.89601,579.9451 730,581.66483 730,585.17752 c 0,5.08074 -3.49414,8.83029 -8.20455,8.80428 C 719.98295,593.9718 713.1,593.07998 706.5,592 c -6.6,-1.07998 -12.9,-1.97179 -14,-1.9818 -1.97219,-0.0179 -2,0.6424 -2,47.4818 0,26.125 0.26146,47.5 0.58102,47.5 0.31956,0 1.20636,-1.16847 1.97067,-2.59659 1.86171,-3.47862 11.657,-12.45198 19.13857,-17.53261 8.37524,-5.68752 22.60289,-12.25369 33.17161,-15.30896 4.87402,-1.40901 9.45997,-2.56184 10.19098,-2.56184 2.57447,0 2.26124,-1.67504 -2.24371,-11.99849 -5.07877,-11.63842 -5.06354,-14.39405 0.0932,-16.86562 2.6924,-1.29043 4.89416,-0.64226 38.47674,11.32716 20.3402,7.24959 36.58613,13.59455 37.87092,14.79074 4.74911,4.4216 3.92946,6.15698 -19.82188,41.96769 -12.13954,18.30318 -22.80054,33.84102 -23.69113,34.52852 -2.39001,1.845 -4.80895,1.52969 -7.67168,-1 -2.14551,-1.8959 -3.03898,-4.61065 -5.67728,-17.25 -1.72208,-8.25 -3.24848,-15.1346 -3.39198,-15.29911 -0.60737,-0.69623 -14.29531,3.05235 -21.11084,5.78142 -19.64646,7.86682 -35.44135,23.65546 -43.82829,43.81094 C 696.77634,755.49155 694,775.41976 694,812.56956 694,845.94958 696.2491,843 670.79633,843 c -16.79216,0 -18.80132,-0.1833 -20.93555,-1.90995 z M 427.4214,610.15843 c -17.40469,-8.13852 -10.90284,-33.52408 8.18098,-31.9415 9.27314,0.769 15.39762,7.4711 15.39762,16.84982 0,12.06619 -12.68523,20.18548 -23.5786,15.09168 z M 468.5,562.03412 c -9.55113,-3.51971 -12.35423,-3.66465 -20,-1.03412 -7.58326,2.60902 -10.06848,2.52243 -13.04545,-0.45455 -2.6601,-2.66009 -3.31207,-7.65902 -1.20455,-9.23573 0.6875,-0.51435 5.58314,-2.65468 10.8792,-4.75629 8.1659,-3.24045 10.46492,-3.75182 15.12857,-3.36507 l 5.49937,0.45605 -1.91394,-6.57221 c -8.71196,-29.91558 -9.20248,-31.98825 -8.1283,-34.34581 0.95014,-2.08534 4.18781,-3.1751 28.42868,-9.5688 l 27.35642,-7.21545 27,7.10325 c 25.91085,6.81671 30.5,8.57307 30.5,11.67302 0,1.2738 -9.18241,33.98742 -10.5139,37.45722 -0.45566,1.18742 0.76066,1.43812 6.72885,1.3869 6.13226,-0.0526 8.47186,0.45786 14.78505,3.22605 10.5325,4.61827 10.46567,4.56853 10.81212,8.04561 0.3724,3.73755 -3.42338,8.16028 -7.01667,8.1756 -1.2625,0.005 -5.67045,-1.1821 -9.79545,-2.63884 l -7.5,-2.64863 -8,3.33265 c -10.99694,4.58112 -19.30113,4.61314 -31.96221,0.12323 -11.69715,-4.14807 -17.66929,-4.18554 -28.53546,-0.17906 -12.0925,4.45865 -19.5061,4.71873 -29.50233,1.03498 z M 482,469.95455 c 0,-13.69255 0.0636,-14.10902 2.52976,-16.57522 2.35312,-2.35312 3.0881,-2.50705 10.52616,-2.20454 l 7.9964,0.32521 -0.62764,-4.16958 c -0.78614,-5.22246 0.29384,-11.90608 2.23799,-13.85024 0.96509,-0.96508 3.48939,-1.48018 7.25377,-1.48018 8.00753,0 9.08424,1.37283 9.08121,11.57874 l -0.002,7.92126 7.75235,-0.30833 c 11.73305,-0.46665 11.64513,-0.59385 12.25235,17.72671 0.32229,9.72399 0.14459,15.08531 -0.5,15.08478 -0.55,-4.5e-4 -7.32002,-1.60539 -15.0445,-3.56655 l -14.04449,-3.56574 -14.15464,3.56457 C 489.47133,482.39595 482.85385,484 482.55087,484 482.24789,484 482,477.67955 482,469.95455 Z m 111,-21.07836 c -8.65624,-2.58627 -14,-9.9821 -14,-19.37619 0,-11.30679 6.9503,-18.58367 18.44898,-19.31585 26.25423,-1.67175 29.47024,36.57467 3.30422,39.29549 -2.33926,0.24325 -5.8282,-0.0283 -7.7532,-0.60345 z M 389.17255,387.73104 c -5.16466,-1.65269 -12.75761,-9.07885 -14.8348,-14.50892 -2.16461,-5.6586 -2.21165,-14.33167 -0.10465,-19.29485 2.12127,-4.99682 7.33771,-10.65514 12.17222,-13.20334 5.59007,-2.94645 17.36792,-3.08018 23.05171,-0.26175 19.78982,9.81324 19.22266,37.47148 -0.95703,46.67048 -4.47307,2.03907 -13.91208,2.3313 -19.32745,0.59838 z"
       id="path1" />
  </g>
</svg>
