<?xml version="1.0" encoding="UTF-8" standalone="no"?>
<!-- Created with Inkscape (http://www.inkscape.org/) -->

<svg
   version="1.1"
   id="svg1"
   width="1024"
   height="1024"
   viewBox="0 0 1024 1024"
   xmlns="http://www.w3.org/2000/svg"
   xmlns:svg="http://www.w3.org/2000/svg">
  <defs
     id="defs1" />
  <g
     id="g1">
    <path
       style="fill:#de3a32;stroke:none"
       d="m 185,510 54,-1 c 2.77948,21.99292 4.3259,43.53876 10.72067,65 20.60007,69.13507 67.26694,126.18878 130.27933,161.13892 31.77258,17.6228 70.48715,30.79235 107,32.82556 11.94699,0.66528 35.65894,6.5509 35.65894,-11.96448 0,-16.05225 -16.13495,-14.06653 -27.65894,-14.91125 -32.56042,-2.38678 -66.00223,-11.1941 -95,-26.40894 C 324.29623,674.95868 267.80054,596.21832 266,509 h 64 c 0.44897,54.24414 33.18036,108.71875 77,138.97455 15.71817,10.85284 33.59985,19.6098 52,24.88421 8.31934,2.38477 19.01175,3.40052 20.78625,-7.85876 0.7887,-5.00427 0.141,-10.94897 -4,-14.34802 C 470.03595,645.93201 459.89658,644.8609 453,642.18909 440.90018,637.5014 429.50113,630.84619 419,623.25464 390.69733,602.79382 372.21631,572.95703 362.02545,540 358.99756,530.20789 358.89478,519.70264 356,510 c 12.49396,-2.97449 27.18774,-1 40,-1 4.96313,0 12.62921,1.42572 16.8912,-1.60339 7.08524,-5.03571 5.95069,-22.08954 -1.90664,-25.74384 C 405.84229,479.26117 399.5025,480 394,480 c -11.54068,0 -25.91971,-2.27527 -37,1 2.34848,-29.71552 15.67764,-52.85785 30,-78 -10.05267,-1.50684 -16.27945,-8.15527 -24,-14 -19.13953,28.37103 -28.73752,58.27258 -33,92 l -23,-1 -40,1 C 267.05826,392.60388 334.6994,309.79785 412,274.30865 439.79605,261.5473 467.48917,258.47876 497,253 v 60 c -25.09973,0.003 -47.33084,9.56189 -70,19 l 12,24 58,-16 v 36 c 0,4.8609 -1.19052,11.6759 1.74228,15.89124 4.84354,6.9616 24.23715,6.40557 27.51541,-1.90668 C 531.41479,376.90839 527,354.06915 527,340 c 48.34595,8.98114 91.06647,29.22858 117.79626,73 7.69947,12.60828 13.71515,25.7688 17.77625,40 2.23047,7.81628 2.09058,19.12891 6.43677,25.95605 3.28912,5.16669 9.3977,5.63013 14.99072,4.85492 11.5918,-1.60669 9.91907,-13.30706 8.3858,-21.81097 -3.70068,-20.52551 -10.84875,-40.9704 -21.3974,-59 C 642.13599,353.68573 586.05511,313.00671 527,313 v -60 c 26.71899,3.37677 51.77344,7.35803 77,17.44904 C 664.91748,294.81689 714.33618,345.80603 739.57562,406 752.42999,436.65656 757,468.99762 757,502 c 0,9.02802 -5.58759,29.60608 5.04321,34.29321 21.23041,9.36048 19.88324,-15.73297 21.53241,-28.29321 4.26136,-32.45441 -4.03277,-69.37708 -14.24231,-100 C 748.19366,344.59271 701.64423,291.40094 644,258.42749 c -25.32147,-14.48431 -53.44824,-23.76703 -82,-29.23071 -7.80713,-1.49396 -16.04443,-2.97394 -24,-3.18213 -3.19043,-0.0835 -7.86914,0.6073 -9.97223,-2.4483 C 525.65485,220.11865 527,212.99585 527,209 v -36 c 144.9054,0.0164 269.83813,117.98584 302.87036,254 9.02332,37.15454 9.66089,76.26147 4.84412,114 -2.32477,18.21442 -8.08032,35.88171 -10.41046,54 -1.16315,9.04407 7.51849,15.88867 12.9815,21.99615 2.2815,2.55066 5.73523,6.87146 9.67053,6.03315 5.06702,-1.07941 6.05756,-8.97376 7.37421,-13.0293 4.66071,-14.35596 7.91321,-29.21625 10.86957,-44 12.80646,-64.04132 6.77978,-129.41833 -14.20288,-191 C 798.27563,220.26886 637.21997,123.91199 477,139.16974 431.34186,143.51776 384.14304,155.95905 344,178.57562 295.06274,206.14685 252.30441,240.99481 219.42746,287 c -90.38919,126.48297 -91.87175,301.47559 3.22687,426 26.06898,34.13538 58.21069,64.0451 94.34567,87.30786 64.75653,41.6886 148.03433,64.18268 225,54.97766 16.16663,-1.93353 32.04156,-4.09765 48,-7.49615 6.73566,-1.43445 16.2038,-2.65412 21.98151,-6.51703 7.4555,-4.98462 7.16638,-15.69562 4.20367,-23.25769 -2.51489,-6.41907 -8.53625,-9.32581 -15.18518,-8.92053 -14.15979,0.86316 -28.90466,6.49633 -43,8.82562 -56.99991,9.41937 -118.64316,2.02862 -172,-20.34412 C 302.39038,762.51782 233.18127,690.9469 203.34413,605 196.34518,584.83929 191.13469,564.17371 188.28241,543 186.86092,532.44763 187.97913,520.07886 185,510 M 497,173 v 53 c -130.61548,0 -256.63809,123.82812 -257,255 -15.47177,-2.87238 -38.66631,-3.65051 -54,0 0.0936,-33.93805 9.67606,-69.69153 22.19984,-101 C 254.05988,265.35364 369.97107,173 497,173 M 393,331.46838 c -37.09821,6.23566 -30.0209,62.86963 8,56.20288 33.93881,-5.95098 26.64673,-62.02648 -8,-56.20288 m 200,80.06403 c -22.14294,5.26691 -13.90833,39.89484 8,34.9375 22.96521,-5.19653 14.90259,-40.38507 -8,-34.9375 m -85,3.99689 c -13.00015,2.98413 -19.59702,19.07751 -25.79938,29.4707 -16.81006,28.16821 -32.87414,56.77979 -49.59723,85 -6.51217,10.98926 -18.76611,26.25781 -8.96527,38.90662 C 432.24399,580.01324 452.68579,576 465,576 c 28.80637,0 57.62555,0.17773 86.42438,-0.18903 C 564.12311,575.64929 578.69556,578.2359 591,574.37659 604.76691,570.05853 605.13013,554.68579 598.98535,544 579.36383,509.87811 559.65076,475.75262 539.39966,442 532.56915,430.61554 524.53943,411.73273 508,415.5293 m 2,42.80322 c 4.26019,-0.69666 10.79803,0.35358 12.80249,4.77551 1.80908,3.99091 0.17926,11.6471 -0.37811,15.89197 -1.25037,9.52301 -1.67462,19.41187 -2.3349,29 -0.39618,5.75354 0.69824,15.62695 -7.10413,16.75232 -7.05145,1.01709 -8.82623,-6.24512 -8.9707,-11.75232 -0.3154,-12.02185 -1.5271,-23.98535 -2.05402,-36 -0.182,-4.14978 -1.78174,-8.77747 -0.64273,-12.89508 1.0242,-3.70258 5.2338,-5.2085 8.6821,-5.7724 M 650,590 v 95 c -19.28479,-19.28497 -40.04633,-31.7699 -67,-37 2.83435,-5.98865 11.78064,-20.27124 6.25769,-26.48535 -3.69763,-4.1604 -10.12152,-0.88873 -14.25769,0.67749 -11.89178,4.50305 -23.96472,8.70636 -36,12.81091 -6.85199,2.33692 -25.32196,5.92957 -28.25385,13.10193 -2.54376,6.22284 4.09192,13.1521 7.25385,17.89502 l 28,42 c 2.97687,4.46484 8.03558,15.24585 14.95679,13.15277 C 569.38049,718.60535 570.08582,695.39856 572,688 c 10.57159,3.58582 21.11945,5.22021 31,10.87268 26.49744,15.15869 38.29333,43.2171 42.57251,72.12732 2.53381,17.11853 2.45422,34.71533 2.42749,52 -0.009,5.92517 -2.31299,15.45166 4.05865,18.97302 7.13489,3.94312 36.7436,4.28968 40.42359,-3.99231 C 694.65283,833.09583 693.00037,826.21954 693,821 c -7.9e-4,-12.32068 0.24847,-24.7193 1.08948,-37 2.32623,-33.96838 14.6532,-69.07422 45.91052,-86.56018 9.45697,-5.29041 19.89246,-6.24243 30,-9.43982 1.39624,7.19971 2.30475,30.41754 10.10803,33.21375 6.96192,2.49475 11.92047,-8.77717 14.89276,-13.21375 9.17499,-13.69507 18.51947,-27.2804 27.6659,-41 3.28131,-4.92194 9.61169,-11.49524 8.0108,-17.95679 -1.43396,-5.78772 -9.87622,-7.4154 -14.67749,-9.23535 -14.92487,-5.65735 -30.05078,-10.7948 -45,-16.38348 -4.883,-1.8255 -13.84216,-6.64374 -18.25769,-1.77082 -5.59064,6.1698 3.69366,19.74646 5.25769,26.34644 -28.7998,5.58508 -46.29565,18.22577 -68,37 v -95 c 8.2356,0.65002 32.35907,8.85321 38.39661,1.68213 C 734.05267,584.96411 723.81421,575.76758 720,571 708.74756,556.93494 697.27917,543.04303 685.99927,529 682.03461,524.06415 677.237,515.89868 670,516.16357 662.74445,516.4292 658.02771,524.96558 654,530 l -33.39966,42 c -3.72308,4.65405 -13.20007,13.18408 -7.85803,19.68213 C 618.28394,598.42285 642.30316,590.97357 650,590 M 513,535.75848 c 15.39728,0.90424 13.27863,25.31849 -2,23.81867 -15.21481,-1.49353 -13.37103,-24.72138 2,-23.81867 m -80,55.78937 c -15.65668,3.39636 -10.69031,27.24707 5,24.10724 15.41937,-3.08563 10.22891,-27.41083 -5,-24.10724 M 651,685 l -1,1 z"
       id="path1" />
  </g>
</svg>
